<?xml version="1.0" encoding="utf-8"?>
<!-- Generator: Adobe Illustrator 24.2.0, SVG Export Plug-In . SVG Version: 6.00 Build 0)  -->
<svg version="1.1" xmlns="http://www.w3.org/2000/svg" xmlns:xlink="http://www.w3.org/1999/xlink" x="0px" y="0px"
	 viewBox="0 0 24 24" style="enable-background:new 0 0 24 24;" xml:space="preserve">
<path class="st0" d="M0.5,0.5c0.7-0.7,1.8-0.7,2.4,0L12,9.6l9.1-9.1c0.7-0.7,1.7-0.7,2.4,0c0.7,0.7,0.7,1.7,0,2.4c0,0,0,0,0,0
	L14.4,12l9.1,9.1c0.7,0.7,0.6,1.8,0,2.4c-0.7,0.6-1.7,0.6-2.4,0L12,14.4l-9.1,9.1c-0.7,0.7-1.8,0.6-2.4,0c-0.6-0.7-0.6-1.7,0-2.4
	L9.6,12L0.5,2.9C-0.2,2.3-0.2,1.2,0.5,0.5z"/>
</svg>
