<?xml version="1.0" encoding="utf-8"?>
<!-- Generator: Adobe Illustrator 24.2.0, SVG Export Plug-In . SVG Version: 6.00 Build 0)  -->
<svg version="1.1" id="图层_1" xmlns="http://www.w3.org/2000/svg" xmlns:xlink="http://www.w3.org/1999/xlink" x="0px" y="0px"
	 viewBox="0 0 24 24" style="enable-background:new 0 0 24 24;" xml:space="preserve">
<path d="M3.3,3.3c0.5-0.5,1.4-0.5,1.8,0l6.9,6.9l6.9-6.9c0.5-0.5,1.3-0.5,1.8,0s0.5,1.3,0,1.8l0,0L13.8,12l6.9,6.9
	c0.5,0.5,0.5,1.4,0,1.8c-0.5,0.5-1.3,0.5-1.8,0L12,13.8l-6.9,6.9c-0.5,0.5-1.4,0.5-1.8,0c-0.5-0.5-0.5-1.3,0-1.8l6.9-6.9L3.3,5.1
	C2.7,4.6,2.7,3.8,3.3,3.3z"/>
</svg>
