<?xml version="1.0" encoding="UTF-8"?>
<!-- Generated by Pixelmator Pro 3.3.11 -->
<svg width="24" height="24" viewBox="0 0 24 24" xmlns="http://www.w3.org/2000/svg">
    <path id="path1" fill="#000000" stroke="none" d="M 8 9 C 5.752 9 4 10.752 4 13 C 4 15.248 5.752 17 8 17 L 10 17 C 10.552285 17 11 17.447716 11 18 C 11 18.552284 10.552285 19 10 19 L 8 19 C 4.648 19 2 16.352001 2 13 C 2 9.648 4.648 7 8 7 L 10 7 C 10.552285 7 11 7.447716 11 8 C 11 8.552284 10.552285 9 10 9 L 8 9 Z M 13 8 C 13 7.447716 13.447715 7 14 7 L 16 7 C 19.351999 7 22 9.648 22 13 C 22 16.352001 19.351999 19 16 19 L 14 19 C 13.447715 19 13 18.552284 13 18 C 13 17.447716 13.447715 17 14 17 L 16 17 C 18.247999 17 20 15.248 20 13 C 20 10.752 18.247999 9 16 9 L 14 9 C 13.447715 9 13 8.552284 13 8 Z M 7 13 C 7 12.447715 7.447715 12 8 12 L 16 12 C 16.552284 12 17 12.447715 17 13 C 17 13.552285 16.552284 14 16 14 L 8 14 C 7.447715 14 7 13.552285 7 13 Z"/>
</svg>
