<?xml version="1.0" encoding="utf-8"?>
<!-- Generator: Adobe Illustrator 24.2.0, SVG Export Plug-In . SVG Version: 6.00 Build 0)  -->
<svg version="1.1" id="图层_1" xmlns="http://www.w3.org/2000/svg" xmlns:xlink="http://www.w3.org/1999/xlink" x="0px" y="0px"
	 viewBox="0 0 24 24" style="enable-background:new 0 0 24 24;" xml:space="preserve">
<g id="window-minimize">
	<path d="M20.2,0H3.8C1.7,0,0,1.7,0,3.8V12c0,0.6,0.5,1,1,1s1-0.5,1-1V3.8c0-0.9,0.8-1.7,1.7-1.7h16.5c0.9,0,1.7,0.8,1.7,1.7v16.5
		c0,0.9-0.8,1.7-1.7,1.7H12c-0.6,0-1,0.5-1,1s0.5,1,1,1h8.2c2.1,0,3.8-1.7,3.8-3.8V3.8C24,1.7,22.3,0,20.2,0z"/>
	<path d="M10.9,13.6c0.1,0.1,0.3,0.1,0.4,0.1h5.5c0.6,0,1-0.5,1-1c0-0.6-0.5-1-1-1h-3l4.4-4.4c0.4-0.4,0.4-1.1-0.1-1.5
		c-0.4-0.4-1-0.4-1.4,0l-4.4,4.4v-3c0-0.6-0.5-1-1-1s-1,0.5-1,1v5.5c0,0.1,0,0.3,0.1,0.4C10.5,13.3,10.7,13.5,10.9,13.6z"/>
	<path d="M6.5,15.1H2.4c-1.3,0-2.4,1.1-2.4,2.4v4.1C0,22.9,1.1,24,2.4,24h4.1c1.3,0,2.4-1.1,2.4-2.4v-4.1
		C8.9,16.2,7.8,15.1,6.5,15.1z M6.9,21.6c0,0.2-0.2,0.3-0.3,0.3H2.4c-0.2,0-0.3-0.2-0.3-0.3v-4.1c0-0.2,0.2-0.3,0.3-0.3h4.1
		c0.2,0,0.3,0.2,0.3,0.3V21.6z"/>
</g>
</svg>
